<svg width="692" height="286" viewBox="0 0 692 286" fill="none" xmlns="http://www.w3.org/2000/svg">
<rect x="98.3052" y="56.3689" width="148" height="148" transform="rotate(15 98.3052 56.3689)" fill="#00B3FF"/>
<path d="M168.151 149.176C173.186 150.115 177.325 152.632 180.567 156.728C183.81 160.824 185.431 165.517 185.431 170.808C185.431 175.587 184.237 179.811 181.847 183.48C179.543 187.064 176.173 189.88 171.735 191.928C167.298 193.976 162.05 195 155.991 195H117.463V105.656H154.327C160.386 105.656 165.591 106.637 169.943 108.6C174.381 110.563 177.709 113.293 179.927 116.792C182.231 120.291 183.383 124.259 183.383 128.696C183.383 133.901 181.975 138.253 179.159 141.752C176.429 145.251 172.759 147.725 168.151 149.176ZM135.383 142.52H151.767C156.034 142.52 159.319 141.581 161.623 139.704C163.927 137.741 165.079 134.968 165.079 131.384C165.079 127.8 163.927 125.027 161.623 123.064C159.319 121.101 156.034 120.12 151.767 120.12H135.383V142.52ZM153.431 180.408C157.783 180.408 161.154 179.384 163.543 177.336C166.018 175.288 167.255 172.387 167.255 168.632C167.255 164.792 165.975 161.805 163.415 159.672C160.855 157.453 157.399 156.344 153.047 156.344H135.383V180.408H153.431Z" fill="black"/>
<rect x="207.994" y="108.032" width="148" height="148" transform="rotate(-21 207.994 108.032)" fill="#595959"/>
<path d="M279.752 174.792H309.192V189H261.832V99.656H279.752V174.792Z" fill="black"/>
<path d="M403.619 49.183L542.693 99.802L492.075 238.876L353 188.258L403.619 49.183Z" fill="#FF3D00"/>
<path d="M447.812 184.896C439.449 184.896 431.769 182.933 424.772 179.008C417.774 175.083 412.228 169.664 408.132 162.752C404.036 155.755 401.988 147.861 401.988 139.072C401.988 130.368 404.036 122.56 408.132 115.648C412.228 108.651 417.774 103.189 424.772 99.264C431.769 95.3387 439.449 93.376 447.812 93.376C456.26 93.376 463.94 95.3387 470.852 99.264C477.849 103.189 483.353 108.651 487.364 115.648C491.46 122.56 493.508 130.368 493.508 139.072C493.508 147.861 491.46 155.755 487.364 162.752C483.353 169.664 477.849 175.083 470.852 179.008C463.854 182.933 456.174 184.896 447.812 184.896ZM447.812 168.896C453.188 168.896 457.924 167.701 462.02 165.312C466.116 162.837 469.316 159.339 471.62 154.816C473.924 150.293 475.076 145.045 475.076 139.072C475.076 133.099 473.924 127.893 471.62 123.456C469.316 118.933 466.116 115.477 462.02 113.088C457.924 110.699 453.188 109.504 447.812 109.504C442.436 109.504 437.657 110.699 433.476 113.088C429.38 115.477 426.18 118.933 423.876 123.456C421.572 127.893 420.42 133.099 420.42 139.072C420.42 145.045 421.572 150.293 423.876 154.816C426.18 159.339 429.38 162.837 433.476 165.312C437.657 167.701 442.436 168.896 447.812 168.896Z" fill="black"/>
<path d="M99.1766 56.1336L233.092 92.372L61.3128 189.598L99.1766 56.1336Z" fill="white" fill-opacity="0.3"/>
<path d="M209 108L348 55L262.5 245.5L209 108Z" fill="white" fill-opacity="0.3"/>
<path d="M492.382 239.02L353 188.979L540 104.5L492.382 239.02Z" fill="white" fill-opacity="0.3"/>
<rect x="499" y="102.639" width="148" height="148" transform="rotate(-22 499 102.639)" fill="#FFE600"/>
<path d="M634.843 124.536C632.795 120.781 629.979 117.923 626.395 115.96C622.811 113.997 618.629 113.016 613.851 113.016C608.56 113.016 603.867 114.211 599.771 116.6C595.675 118.989 592.475 122.403 590.171 126.84C587.867 131.277 586.715 136.397 586.715 142.2C586.715 148.173 587.867 153.379 590.171 157.816C592.56 162.253 595.845 165.667 600.027 168.056C604.208 170.445 609.072 171.64 614.619 171.64C621.445 171.64 627.035 169.848 631.387 166.264C635.739 162.595 638.597 157.517 639.963 151.032H609.243V137.336H657.627V152.952C656.432 159.181 653.872 164.941 649.947 170.232C646.021 175.523 640.944 179.789 634.715 183.032C628.571 186.189 621.659 187.768 613.979 187.768C605.36 187.768 597.552 185.848 590.555 182.008C583.643 178.083 578.181 172.664 574.171 165.752C570.245 158.84 568.283 150.989 568.283 142.2C568.283 133.411 570.245 125.56 574.171 118.648C578.181 111.651 583.643 106.232 590.555 102.392C597.552 98.4667 605.317 96.504 613.851 96.504C623.92 96.504 632.667 98.9787 640.091 103.928C647.515 108.792 652.635 115.661 655.451 124.536H634.843Z" fill="black"/>
<path d="M501.902 105.229L636.874 44.287L555.5 237L501.902 105.229Z" fill="white" fill-opacity="0.3"/>
</svg>
